HIERARCHY
ROOT Hips
{
    OFFSET 0.000000 0.000000 0.000000
    CHANNELS 6 Xposition Yposition Zposition Zrotation Xrotation Yrotation
    JOINT Spine
    {
        OFFSET -0.000000 7.236184 0.000000
        CHANNELS 3 Zrotation Xrotation Yrotation
        JOINT Spine1
        {
            OFFSET -0.000000 20.420147 0.000000
            CHANNELS 3 Zrotation Xrotation Yrotation
            JOINT Neck
            {
                OFFSET -0.000000 20.336288 1.848754
                CHANNELS 3 Zrotation Xrotation Yrotation
                JOINT Head
                {
                    OFFSET -0.000000 12.354461 -1.764923
                    CHANNELS 3 Zrotation Xrotation Yrotation
                    End Site
                    {
                        OFFSET -0.000000 22.061537 0.000000
                    }
                }
            }
            JOINT LeftShoulder
            {
                OFFSET 3.573296 18.396038 -0.314103
                CHANNELS 3 Zrotation Xrotation Yrotation
                JOINT LeftArm
                {
                    OFFSET 10.880760 0.000000 0.000000
                    CHANNELS 3 Zrotation Xrotation Yrotation
                    JOINT LeftForeArm
                    {
                        OFFSET 27.185530 0.000000 0.000000
                        CHANNELS 3 Zrotation Xrotation Yrotation
                        JOINT LeftHand
                        {
                            OFFSET 27.825975 0.000000 0.000000
                            CHANNELS 3 Zrotation Xrotation Yrotation
                            End Site
                            {
                                OFFSET 13.236923 0.000000 0.000000
                            }
                        }
                    }
                }
            }
            JOINT RightShoulder
            {
                OFFSET -3.474926 18.396038 -0.314103
                CHANNELS 3 Zrotation Xrotation Yrotation
                JOINT RightArm
                {
                    OFFSET -10.880760 0.000000 0.000000
                    CHANNELS 3 Zrotation Xrotation Yrotation
                    JOINT RightForeArm
                    {
                        OFFSET -27.185530 0.000000 0.000000
                        CHANNELS 3 Zrotation Xrotation Yrotation
                        JOINT RightHand
                        {
                            OFFSET -27.825975 0.000000 0.000000
                            CHANNELS 3 Zrotation Xrotation Yrotation
                            End Site
                            {
                                OFFSET -13.236923 0.000000 0.000000
                            }
                        }
                    }
                }
            }
        }
    }
    JOINT LeftUpLeg
    {
        OFFSET 8.824615 0.000000 0.000000
        CHANNELS 3 Zrotation Xrotation Yrotation
        JOINT LeftLeg
        {
            OFFSET -0.000000 -35.111282 0.000000
            CHANNELS 3 Zrotation Xrotation Yrotation
            JOINT LeftFoot
            {
                OFFSET -0.000000 -42.324711 0.000000
                CHANNELS 3 Zrotation Xrotation Yrotation
                JOINT LeftToeBase
                {
                    OFFSET -0.000000 -5.735999 13.236923
                    CHANNELS 3 Zrotation Xrotation Yrotation
                    End Site
                    {
                        OFFSET -0.000000 0.000000 3.529846
                    }
                }
            }
        }
    }
    JOINT RightUpLeg
    {
        OFFSET -8.824615 0.000000 0.000000
        CHANNELS 3 Zrotation Xrotation Yrotation
        JOINT RightLeg
        {
            OFFSET -0.000000 -35.111282 0.000000
            CHANNELS 3 Zrotation Xrotation Yrotation
            JOINT RightFoot
            {
                OFFSET -0.000000 -42.324711 0.000000
                CHANNELS 3 Zrotation Xrotation Yrotation
                JOINT RightToeBase
                {
                    OFFSET -0.000000 -5.735999 13.236923
                    CHANNELS 3 Zrotation Xrotation Yrotation
                    End Site
                    {
                        OFFSET -0.000000 0.000000 3.529846
                    }
                }
            }
        }
    }
}
MOTION
Frames:    7
Frame Time:    0.008333
2.115149    79.978859    105.130257    -1.774289    -7.827981    -177.040955    -2.082263    -14.306695    0.696346    0.200577    6.351798    0.946619    2.706015    7.247437    -2.326867    4.537188    -0.896125    -1.965190    2.065170    16.675409    -1.754789    -50.749008    45.437099    -36.309208    0.732612    -7.358374    -16.428860    18.412115    -6.667699    3.639890    5.592941    17.612247    -7.283844    48.704124    47.402332    28.124622    -3.730443    -9.554055    21.061010    -8.618821    -8.586708    -3.792697    6.799782    -8.658900    -0.303249    -3.232026    10.097687    -4.735315    -4.144958    -8.937492    -5.022517    -0.803070    0.289788    0.889709    -12.710105    -3.219697    -4.424220    4.362612    4.432657    -1.024934    5.530283    -5.483528    -12.732431    -0.402758    -0.448128    0.435883    
2.102053    79.979172    105.116798    -1.780799    -7.834559    -177.037109    -2.074658    -14.307898    0.707694    0.172599    6.364126    0.958614    2.715374    7.235811    -2.326087    4.532038    -0.911330    -1.965652    2.065387    16.678223    -1.753603    -50.762039    45.424122    -36.283928    0.732856    -7.355893    -16.436836    18.419643    -6.664634    3.641372    5.601312    17.619043    -7.298421    48.718250    47.367294    28.101646    -3.647417    -9.683058    21.110924    -8.134493    -8.738544    -3.893512    6.776249    -8.694336    -0.286964    -3.216860    10.168684    -4.744080    -4.135877    -8.968492    -5.034998    -0.803003    0.299495    0.889620    -12.725902    -3.206632    -4.430490    4.362499    4.419333    -1.011024    5.535972    -5.485051    -12.743170    -0.395406    -0.454687    0.427931    
2.089351    79.979477    105.103806    -1.787141    -7.841112    -177.033463    -2.066933    -14.309022    0.718900    0.144647    6.376045    0.970294    2.725042    7.224220    -2.325365    4.526904    -0.925828    -1.966194    2.066607    16.680893    -1.752812    -50.775520    45.411682    -36.258617    0.733113    -7.353828    -16.444580    18.426847    -6.661980    3.643003    5.610163    17.625132    -7.312992    48.731758    47.333485    28.079124    -3.565636    -9.809778    21.159338    -7.655625    -8.888858    -3.990515    6.753414    -8.728922    -0.270717    -3.202071    10.237537    -4.752934    -4.127255    -8.998458    -5.047196    -0.803065    0.309412    0.889672    -12.741167    -3.194140    -4.436594    4.362206    4.406286    -0.998046    5.541565    -5.486278    -12.753024    -0.388444    -0.460762    0.420400    
2.076726    79.979759    105.090904    -1.793476    -7.847883    -177.030060    -2.058517    -14.310010    0.730236    0.115238    6.387896    0.982309    2.735662    7.212174    -2.324715    4.521756    -0.939746    -1.966972    2.069231    16.683064    -1.752942    -50.791027    45.399414    -36.230797    0.733567    -7.352428    -16.452206    18.433352    -6.659962    3.644841    5.620907    17.629787    -7.328135    48.745361    47.299572    28.055218    -3.481930    -9.937304    21.207565    -7.163282    -9.041702    -4.087331    6.730706    -8.763394    -0.253786    -3.187269    10.305783    -4.762032    -4.118926    -9.028130    -5.059640    -0.803247    0.319389    0.889858    -12.756229    -3.181972    -4.442493    4.361719    4.393074    -0.986480    5.547166    -5.487076    -12.761550    -0.381644    -0.466754    0.413043    
2.064499    79.980026    105.078506    -1.799785    -7.854926    -177.027039    -2.049413    -14.310861    0.741654    0.084400    6.399355    0.994312    2.747484    7.199556    -2.324241    4.516479    -0.952706    -1.968086    2.073976    16.684711    -1.754240    -50.808529    45.387669    -36.200768    0.734112    -7.352221    -16.459478    18.438402    -6.659171    3.646679    5.633730    17.632896    -7.343938    48.757954    47.267014    28.031307    -3.398613    -10.061700    21.254446    -6.668818    -9.192400    -4.182801    6.708575    -8.797389    -0.236270    -3.172810    10.372102    -4.771273    -4.111249    -9.056870    -5.072220    -0.803615    0.329582    0.890250    -12.770792    -3.170749    -4.448219    4.360874    4.380111    -0.976543    5.552740    -5.487363    -12.768432    -0.375218    -0.472363    0.406092    
2.052699    79.980278    105.066574    -1.805940    -7.862192    -177.024384    -2.039448    -14.311331    0.753229    0.051999    6.410382    1.006393    2.760179    7.186164    -2.324108    4.511661    -0.964777    -1.969596    2.080887    16.685673    -1.756850    -50.828232    45.376305    -36.167938    0.734604    -7.353456    -16.466385    18.441320    -6.659925    3.648413    5.648757    17.633831    -7.360355    48.770065    47.235939    28.006466    -3.316138    -10.181238    21.300035    -6.176219    -9.338883    -4.278199    6.687257    -8.830871    -0.218087    -3.158908    10.436579    -4.780631    -4.104034    -9.084781    -5.084962    -0.804144    0.339840    0.890819    -12.784702    -3.160331    -4.453447    4.359732    4.367178    -0.968914    5.558272    -5.487045    -12.773330    -0.369323    -0.477472    0.399714    
2.041347    79.980537    105.055115    -1.811932    -7.869717    -177.022110    -2.028701    -14.311494    0.764849    0.018157    6.421133    1.018579    2.773875    7.172313    -2.324300    4.506845    -0.976650    -1.971575    2.089686    16.686049    -1.761101    -50.850521    45.364704    -36.131565    0.735042    -7.356568    -16.472498    18.441227    -6.662774    3.649371    5.665933    17.632881    -7.377406    48.780865    47.206963    27.981512    -3.235533    -10.294715    21.344219    -5.692580    -9.479506    -4.373868    6.666710    -8.864041    -0.199286    -3.145398    10.499545    -4.789519    -4.097514    -9.111979    -5.098484    -0.804802    0.350404    0.891532    -12.797943    -3.150628    -4.458115    4.358305    4.354162    -0.963191    5.563765    -5.486217    -12.776751    -0.363785    -0.482242    0.393724    
